<svg t="1630138115318" class="icon" viewBox="0 0 1024 1024" version="1.1" xmlns="http://www.w3.org/2000/svg" p-id="8189" width="32" height="32"><path d="M719.6 364c0-117.2-95.6-212.8-212.8-212.8S294 246.4 294 364c0 79.2 43.6 148.4 108 184.8-122.4 45.2-210 162.4-210 300 0 13.2 10.8 24 24 24s24-10.8 24-24c0-150 122-272 271.6-272 2 0 4.4-0.4 6.4-0.8 112-6 201.6-98.8 201.6-212z m-377.6 0c0-90.8 74-164.4 164.4-164.4s164.4 74 164.4 164.4-74 164.4-164.4 164.4S342 454.8 342 364z" fill="#515151" p-id="8190"></path><path d="M675.2 573.2c-8.4-4.8-16.8-9.6-25.6-13.6-12-5.6-26.4-0.8-32 11.6-5.6 12-0.8 26.4 11.6 32 7.2 3.6 14.8 7.2 21.6 11.6 82.4 48.8 133.2 138.4 133.2 234 0 13.2 10.8 24 24 24s24-10.8 24-24c0-112.4-60-218-156.8-275.6z" fill="#515151" p-id="8191"></path></svg>